<?xml version="1.0" standalone="no"?>
<!DOCTYPE svg PUBLIC "-//W3C//DTD SVG 20010904//EN"
 "http://www.w3.org/TR/2001/REC-SVG-20010904/DTD/svg10.dtd">
<svg version="1.0" xmlns="http://www.w3.org/2000/svg"
 width="932.000000pt" height="932.000000pt" viewBox="0 0 932.000000 932.000000"
 preserveAspectRatio="xMidYMid meet">
<metadata>
Created by potrace 1.14, written by Peter Selinger 2001-2017
</metadata>
<g transform="translate(0.000000,932.000000) scale(0.100000,-0.100000)"
fill="#000000" stroke="none">
<path d="M2200 9309 c-14 -6 -36 -20 -48 -32 -50 -46 -52 -59 -52 -327 l0
-250 -240 0 c-295 0 -327 -9 -371 -105 -16 -35 -19 -69 -19 -282 l0 -242 -259
-3 c-286 -3 -284 -3 -335 -72 l-21 -27 0 -3934 0 -3934 21 -27 c11 -15 33 -37
48 -48 l27 -21 3089 0 3089 0 27 21 c69 51 69 49 72 335 l3 259 237 0 c297 1
330 10 373 105 16 35 19 69 19 282 l0 242 259 3 c286 3 284 3 335 72 l21 27 3
3072 c2 2051 -1 3084 -7 3107 -8 28 -194 219 -871 895 -564 564 -873 866 -897
877 -36 16 -177 17 -2258 17 -1451 0 -2229 -4 -2245 -10z m5158 -1111 l549
-548 -386 0 -386 0 -167 167 -168 168 0 384 c0 211 2 382 4 380 3 -2 252 -250
554 -551z m-335 -908 c141 -140 257 -258 257 -262 0 -4 -172 -8 -382 -8 l-383
0 -167 167 -168 168 0 385 0 385 293 -290 c160 -160 408 -405 550 -545z m-713
-538 l355 -352 -557 0 -558 0 0 552 0 553 203 -200 c111 -111 362 -359 557
-553z m-2687 -956 c25 -7 59 -23 75 -34 96 -69 168 -278 232 -682 17 -107 33
-205 36 -217 10 -49 30 -18 68 100 48 147 169 392 251 507 76 105 186 215 260
259 87 53 148 70 244 71 l83 0 38 -38 c58 -57 59 -89 15 -343 -20 -118 -57
-329 -81 -469 -58 -337 -58 -434 0 -571 5 -11 -7 -22 -46 -42 -72 -36 -153
-50 -212 -37 -105 23 -138 75 -144 227 -5 127 7 231 68 602 27 162 47 297 44
300 -9 9 -70 -64 -126 -149 -108 -163 -212 -418 -263 -647 -15 -65 -31 -124
-37 -130 -19 -23 -114 -63 -164 -69 -165 -20 -222 114 -304 721 -36 267 -38
275 -49 275 -8 0 -52 -228 -98 -510 -37 -226 -39 -422 -5 -495 l23 -50 -28
-22 c-41 -33 -108 -53 -180 -53 -76 0 -120 16 -156 59 -36 44 -47 90 -47 206
1 123 6 163 76 600 l56 349 -41 83 c-22 46 -41 88 -41 93 0 13 174 97 225 109
61 14 176 13 228 -3z m-1127 -2040 l34 -34 61 25 c123 50 300 56 409 14 204
-78 310 -308 256 -555 -34 -150 -112 -267 -233 -350 -129 -88 -313 -129 -479
-106 -47 6 -97 15 -111 21 -15 5 -30 6 -34 2 -13 -13 -25 -192 -18 -269 4 -40
16 -88 28 -111 l21 -42 -34 -20 c-78 -48 -183 -64 -268 -41 -53 15 -94 67
-108 137 -21 100 -5 251 89 821 l40 243 -44 90 -45 89 37 23 c97 61 206 96
297 97 64 0 70 -2 102 -34z m1427 3 c29 -30 33 -31 62 -19 120 50 328 66 450
35 160 -42 283 -141 354 -286 52 -105 71 -194 71 -332 0 -244 -78 -444 -239
-610 -160 -166 -365 -252 -631 -264 -268 -12 -453 53 -519 182 -46 89 -36 215
63 780 l44 249 -44 88 c-24 48 -44 89 -44 91 0 8 157 81 209 98 31 10 87 18
124 18 64 1 71 -1 100 -30z m1699 11 c14 -10 31 -33 38 -51 l13 -31 66 7 c90
9 213 31 354 62 64 14 121 23 125 19 4 -4 7 -47 7 -94 0 -71 -4 -96 -23 -134
-29 -58 -84 -103 -157 -129 -66 -23 -223 -25 -328 -5 -50 9 -70 10 -73 2 -7
-21 -54 -300 -54 -322 0 -19 7 -22 71 -27 53 -4 90 -1 147 13 42 11 82 20 88
20 16 0 25 -68 14 -114 -11 -48 -63 -103 -110 -116 -44 -12 -152 -12 -205 0
-22 5 -41 7 -43 5 -3 -2 -13 -62 -24 -132 -23 -156 -19 -268 13 -343 21 -50
21 -51 3 -65 -72 -55 -223 -72 -301 -34 -73 35 -88 76 -87 239 0 139 15 259
89 702 19 113 35 220 35 237 0 17 -18 68 -41 113 -32 64 -38 83 -27 90 38 25
160 81 203 93 79 21 177 19 207 -5z"/>
<path d="M2567 3558 c-25 -7 -39 -17 -42 -32 -2 -11 -25 -140 -50 -285 -37
-212 -43 -266 -33 -273 7 -5 56 -7 108 -5 106 4 168 28 238 92 106 95 138 275
73 404 -48 93 -167 133 -294 99z"/>
<path d="M3999 3555 c-46 -15 -46 -15 -53 -67 -4 -29 -32 -210 -62 -403 -64
-407 -86 -564 -79 -575 9 -15 95 -30 174 -30 143 0 248 46 347 152 111 120
164 271 164 467 0 235 -66 372 -210 439 -68 32 -208 41 -281 17z"/>
</g>
</svg>
