<?xml version="1.0" encoding="utf-8"?>
<svg viewBox="59.285 16.917 381.429 466.166" xmlns="http://www.w3.org/2000/svg">
  <g transform="matrix(1.248769, 0, 0, 1.248769, 121.723808, -203.781174)">
    <rect width="169.685" height="306.655" style="paint-order: fill; fill: rgb(255, 87, 34);" y="187.109" x="9.447"/>
    <rect width="137.425" height="238.54" style="paint-order: fill; fill: rgb(255, 87, 34);" y="253.91" x="107.117"/>
  </g>
  <path d="M 234.889 395.776 L 284.749 442.923 L 185.029 442.923 L 234.889 395.776 Z" style="fill: rgb(198, 255, 0);" transform="matrix(-0.703241, -0.710951, 0.760719, -0.652928, 217.258286, 527.156433)"/>
  <g transform="matrix(1.006231, 0, 0, 1.006231, 79.376633, 16.917089)" style="">
    <path style="fill-rule: evenodd; fill: rgb(178, 60, 23);" d="M 359.002 90.968 C 358.961 90.245 358.823 89.546 358.587 88.863 C 358.498 88.603 358.424 88.351 358.319 88.107 C 357.921 87.245 357.425 86.416 356.726 85.725 L 273.223 2.382 C 272.524 1.683 271.703 1.187 270.841 0.789 C 270.597 0.675 270.345 0.61 270.093 0.521 C 269.402 0.285 268.703 0.147 267.971 0.098 C 267.801 0.089 267.646 0 267.476 0 L 50.214 0 C 45.727 0 42.085 3.642 42.085 8.129 L 42.085 393.058 C 42.085 397.553 45.727 401.187 50.214 401.187 L 350.971 401.187 C 355.466 401.187 359.1 397.554 359.1 393.058 L 359.1 91.472 C 359.108 91.294 359.019 91.139 359.002 90.968 Z M 331.357 83.344 L 275.604 83.344 L 275.604 27.751 L 331.357 83.344 Z M 58.343 384.929 L 58.343 16.257 L 259.339 16.257 L 259.339 91.472 C 259.339 95.959 262.981 99.601 267.468 99.601 L 342.843 99.601 L 342.843 384.929 L 58.343 384.929 Z"/>
  </g>
  <g transform="matrix(1.248769, 0, 0, 1.248769, 90.504585, -172.561951)">
    <rect width="169.685" height="306.655" style="paint-order: fill; fill: rgb(255, 87, 34);" y="187.109" x="9.447"/>
    <rect width="137.425" height="238.54" style="paint-order: fill; fill: rgb(255, 87, 34);" y="253.91" x="107.117"/>
  </g>
  <path d="M 234.889 395.776 L 284.749 442.923 L 185.029 442.923 L 234.889 395.776 Z" style="fill: rgb(198, 255, 0);" transform="matrix(-0.703241, -0.710951, 0.760719, -0.652928, 186.039063, 558.37561)"/>
  <g transform="matrix(1.006231, 0, 0, 1.006231, 48.157413, 48.136314)" style="">
    <path style="fill-rule: evenodd; fill: rgb(178, 60, 23);" d="M 359.002 90.968 C 358.961 90.245 358.823 89.546 358.587 88.863 C 358.498 88.603 358.424 88.351 358.319 88.107 C 357.921 87.245 357.425 86.416 356.726 85.725 L 273.223 2.382 C 272.524 1.683 271.703 1.187 270.841 0.789 C 270.597 0.675 270.345 0.61 270.093 0.521 C 269.402 0.285 268.703 0.147 267.971 0.098 C 267.801 0.089 267.646 0 267.476 0 L 50.214 0 C 45.727 0 42.085 3.642 42.085 8.129 L 42.085 393.058 C 42.085 397.553 45.727 401.187 50.214 401.187 L 350.971 401.187 C 355.466 401.187 359.1 397.554 359.1 393.058 L 359.1 91.472 C 359.108 91.294 359.019 91.139 359.002 90.968 Z M 331.357 83.344 L 275.604 83.344 L 275.604 27.751 L 331.357 83.344 Z M 58.343 384.929 L 58.343 16.257 L 259.339 16.257 L 259.339 91.472 C 259.339 95.959 262.981 99.601 267.468 99.601 L 342.843 99.601 L 342.843 384.929 L 58.343 384.929 Z"/>
  </g>
  <g transform="matrix(1.248769, 0, 0, 1.248769, 59.285397, -141.301956)">
    <rect width="169.685" height="306.655" style="paint-order: fill; fill: rgb(255, 87, 34);" y="187.109" x="9.447"/>
    <rect width="137.425" height="238.54" style="paint-order: fill; fill: rgb(255, 87, 34);" y="253.91" x="107.117"/>
  </g>
  <path d="M 234.889 395.776 L 284.749 442.923 L 185.029 442.923 L 234.889 395.776 Z" style="fill: rgb(198, 255, 0);" transform="matrix(-0.703241, -0.710951, 0.760719, -0.652928, 154.81987, 589.63562)"/>
  <g transform="matrix(1.006231, 0, 0, 1.006231, 16.938223, 79.396309)" style="">
    <path style="fill-rule: evenodd; fill: rgb(178, 60, 23);" d="M 359.002 90.968 C 358.961 90.245 358.823 89.546 358.587 88.863 C 358.498 88.603 358.424 88.351 358.319 88.107 C 357.921 87.245 357.425 86.416 356.726 85.725 L 273.223 2.382 C 272.524 1.683 271.703 1.187 270.841 0.789 C 270.597 0.675 270.345 0.61 270.093 0.521 C 269.402 0.285 268.703 0.147 267.971 0.098 C 267.801 0.089 267.646 0 267.476 0 L 50.214 0 C 45.727 0 42.085 3.642 42.085 8.129 L 42.085 393.058 C 42.085 397.553 45.727 401.187 50.214 401.187 L 350.971 401.187 C 355.466 401.187 359.1 397.554 359.1 393.058 L 359.1 91.472 C 359.108 91.294 359.019 91.139 359.002 90.968 Z M 331.357 83.344 L 275.604 83.344 L 275.604 27.751 L 331.357 83.344 Z M 58.343 384.929 L 58.343 16.257 L 259.339 16.257 L 259.339 91.472 C 259.339 95.959 262.981 99.601 267.468 99.601 L 342.843 99.601 L 342.843 384.929 L 58.343 384.929 Z"/>
  </g>
  <path d="M 203.386 97.61 C 198.799 97.61 195.526 96.34 193.566 93.8 C 191.612 91.253 190.636 87.313 190.636 81.98 C 190.636 79.813 190.779 77.127 191.066 73.92 C 191.359 70.713 191.859 66.797 192.566 62.17 C 193.279 57.543 194.176 51.96 195.256 45.42 C 196.342 38.88 197.592 31.193 199.006 22.36 L 193.506 11.23 C 196.926 8.983 200.489 7.15 204.196 5.73 C 207.902 4.317 211.466 3.61 214.886 3.61 C 218.052 3.61 220.842 4.047 223.256 4.92 C 225.676 5.793 227.822 7.46 229.696 9.92 C 231.569 12.38 233.256 15.84 234.756 20.3 C 236.256 24.753 237.716 30.563 239.136 37.73 C 240.549 44.897 241.966 53.69 243.386 64.11 L 244.886 64.11 C 246.299 58.857 248.152 53.46 250.446 47.92 C 252.739 42.38 255.406 37.007 258.446 31.8 C 261.486 26.587 264.882 21.877 268.636 17.67 C 272.382 13.463 276.402 10.15 280.696 7.73 C 284.989 5.317 289.509 4.11 294.256 4.11 C 296.922 4.11 299.006 4.567 300.506 5.48 C 302.006 6.4 303.069 7.65 303.696 9.23 C 304.322 10.817 304.636 12.65 304.636 14.73 C 304.636 15.65 304.446 17.317 304.066 19.73 C 303.692 22.15 303.216 25.027 302.636 28.36 C 302.049 31.693 301.402 35.297 300.696 39.17 C 299.989 43.043 299.279 46.96 298.566 50.92 C 297.859 54.88 297.216 58.63 296.636 62.17 C 296.049 65.71 295.569 68.857 295.196 71.61 C 294.822 74.357 294.636 76.44 294.636 77.86 C 294.636 81.36 294.926 84.317 295.506 86.73 C 296.092 89.15 296.969 91.233 298.136 92.98 C 293.802 96.153 289.386 97.74 284.886 97.74 C 280.386 97.74 277.156 96.447 275.196 93.86 C 273.236 91.273 272.256 87.357 272.256 82.11 C 272.256 79.943 272.402 77.317 272.696 74.23 C 272.989 71.15 273.446 67.463 274.066 63.17 C 274.692 58.877 275.506 53.793 276.506 47.92 C 277.506 42.047 278.672 35.193 280.006 27.36 L 279.006 27.36 C 276.092 30.44 273.446 33.897 271.066 37.73 C 268.692 41.563 266.526 45.587 264.566 49.8 C 262.612 54.007 260.926 58.193 259.506 62.36 C 258.092 66.527 256.926 70.463 256.006 74.17 C 255.092 77.877 254.469 81.19 254.136 84.11 C 252.216 85.777 250.152 87.047 247.946 87.92 C 245.739 88.793 243.592 89.23 241.506 89.23 C 239.592 89.23 237.886 88.773 236.386 87.86 C 234.886 86.94 233.509 85.253 232.256 82.8 C 231.009 80.34 229.862 76.797 228.816 72.17 C 227.776 67.543 226.692 61.563 225.566 54.23 C 224.446 46.897 223.219 37.94 221.886 27.36 L 220.886 27.36 C 220.132 31.107 219.382 34.98 218.636 38.98 C 217.882 42.98 217.172 46.98 216.506 50.98 C 215.839 54.98 215.256 58.73 214.756 62.23 C 214.256 65.73 213.839 68.813 213.506 71.48 C 213.172 74.147 213.006 76.23 213.006 77.73 C 213.006 81.23 213.299 84.21 213.886 86.67 C 214.466 89.13 215.339 91.193 216.506 92.86 C 214.339 94.527 212.172 95.737 210.006 96.49 C 207.839 97.237 205.632 97.61 203.386 97.61 Z" transform="matrix(0.8078360557556152, 0, 0, 0.8078360557556152, 18.582515716552734, 189.37344360351562)" style="fill: rgb(255, 255, 255); text-transform: uppercase; white-space: pre;"/>
  <path d="M 160.262 193.73 C 156.175 193.73 152.549 193.273 149.382 192.36 C 146.215 191.44 143.132 190.023 140.132 188.11 L 141.882 176.73 C 143.549 178.063 145.485 179.023 147.692 179.61 C 149.905 180.19 152.095 180.48 154.262 180.48 C 158.762 180.48 162.719 179.523 166.132 177.61 C 169.552 175.69 172.219 173.087 174.132 169.8 C 176.052 166.507 177.012 162.777 177.012 158.61 C 177.012 155.777 176.512 153.13 175.512 150.67 C 174.512 148.21 172.905 146.23 170.692 144.73 C 168.485 143.23 165.632 142.48 162.132 142.48 C 159.219 142.48 156.322 143.17 153.442 144.55 C 150.569 145.923 147.549 147.86 144.382 150.36 L 144.382 140.48 C 146.969 138.313 149.552 136.357 152.132 134.61 C 154.719 132.857 157.679 131.46 161.012 130.42 C 164.345 129.38 168.345 128.86 173.012 128.86 C 178.845 128.86 183.802 130.173 187.882 132.8 C 191.969 135.42 195.052 138.857 197.132 143.11 C 199.219 147.357 200.262 151.94 200.262 156.86 C 200.262 161.36 199.469 165.797 197.882 170.17 C 196.302 174.543 193.865 178.503 190.572 182.05 C 187.279 185.59 183.132 188.423 178.132 190.55 C 173.132 192.67 167.175 193.73 160.262 193.73 Z M 135.012 222.61 C 130.512 222.61 127.262 221.483 125.262 219.23 C 123.262 216.983 122.262 213.36 122.262 208.36 C 122.262 206.273 122.365 203.793 122.572 200.92 C 122.779 198.047 123.215 194.36 123.882 189.86 C 124.549 185.36 125.445 179.673 126.572 172.8 C 127.699 165.92 129.095 157.44 130.762 147.36 L 125.262 136.23 C 129.095 133.73 132.845 131.837 136.512 130.55 C 140.179 129.257 143.595 128.61 146.762 128.61 C 152.095 128.61 154.762 131.86 154.762 138.36 C 154.762 139.36 154.595 141.11 154.262 143.61 C 153.929 146.11 153.449 149.11 152.822 152.61 C 152.195 156.11 151.529 159.88 150.822 163.92 C 150.115 167.96 149.405 172.023 148.692 176.11 C 147.985 180.19 147.319 184.087 146.692 187.8 C 146.072 191.507 145.595 194.777 145.262 197.61 C 144.929 200.443 144.762 202.61 144.762 204.11 C 144.762 207.357 145.032 210.063 145.572 212.23 C 146.112 214.397 147.009 216.273 148.262 217.86 C 144.095 221.027 139.679 222.61 135.012 222.61 ZM 241.63 222.49 C 231.717 222.49 224.093 220.863 218.76 217.61 C 213.427 214.357 210.76 209.73 210.76 203.73 C 210.76 201.817 210.883 199.443 211.13 196.61 C 211.383 193.777 211.843 190.213 212.51 185.92 C 213.177 181.627 214.07 176.313 215.19 169.98 C 216.317 163.647 217.63 156.107 219.13 147.36 L 213.63 136.23 C 217.63 133.73 221.443 131.837 225.07 130.55 C 228.697 129.257 232.01 128.61 235.01 128.61 C 240.423 128.61 243.13 131.86 243.13 138.36 C 243.13 139.44 242.943 141.337 242.57 144.05 C 242.197 146.757 241.717 150.007 241.13 153.8 C 240.55 157.587 239.927 161.67 239.26 166.05 C 238.593 170.423 237.883 174.817 237.13 179.23 C 236.383 183.65 235.717 187.817 235.13 191.73 C 234.55 195.65 234.07 199.067 233.69 201.98 C 233.317 204.9 233.13 207.027 233.13 208.36 C 234.797 209.027 236.507 209.507 238.26 209.8 C 240.007 210.087 241.88 210.23 243.88 210.23 C 250.133 210.23 255.653 208.563 260.44 205.23 C 265.233 201.897 269.007 197.293 271.76 191.42 C 274.507 185.547 275.88 178.817 275.88 171.23 C 275.88 162.063 273.88 154.98 269.88 149.98 C 265.88 144.98 260.173 142.48 252.76 142.48 C 250.26 142.48 247.967 142.753 245.88 143.3 C 243.8 143.84 241.76 144.673 239.76 145.8 C 237.76 146.92 235.51 148.313 233.01 149.98 L 230.38 141.23 C 233.967 138.397 237.3 136.043 240.38 134.17 C 243.467 132.297 246.697 130.9 250.07 129.98 C 253.443 129.067 257.38 128.61 261.88 128.61 C 269.3 128.61 275.76 130.213 281.26 133.42 C 286.76 136.627 291.05 141.147 294.13 146.98 C 297.217 152.813 298.76 159.69 298.76 167.61 C 298.76 175.69 297.363 183.087 294.57 189.8 C 291.777 196.507 287.86 202.297 282.82 207.17 C 277.78 212.043 271.76 215.813 264.76 218.48 C 257.76 221.153 250.05 222.49 241.63 222.49 ZM 329.133 222.61 C 324.633 222.61 321.383 221.483 319.383 219.23 C 317.383 216.983 316.383 213.36 316.383 208.36 C 316.383 206.273 316.506 203.773 316.753 200.86 C 317.006 197.94 317.466 194.19 318.133 189.61 C 318.799 185.023 319.673 179.313 320.753 172.48 C 321.839 165.647 323.216 157.273 324.883 147.36 L 319.383 136.23 C 323.216 133.73 326.966 131.837 330.633 130.55 C 334.299 129.257 337.716 128.61 340.883 128.61 C 346.216 128.61 348.883 131.86 348.883 138.36 C 348.883 139.36 348.716 141.11 348.383 143.61 C 348.049 146.11 347.569 149.11 346.943 152.61 C 346.316 156.11 345.649 159.88 344.943 163.92 C 344.236 167.96 343.526 172.023 342.813 176.11 C 342.106 180.19 341.439 184.087 340.813 187.8 C 340.193 191.507 339.716 194.777 339.383 197.61 C 339.049 200.443 338.883 202.61 338.883 204.11 C 338.883 207.357 339.153 210.063 339.693 212.23 C 340.233 214.397 341.129 216.273 342.383 217.86 C 338.463 221.027 334.046 222.61 329.133 222.61 Z M 351.133 186.73 C 349.379 186.73 347.546 186.563 345.633 186.23 C 343.713 185.897 341.336 185.397 338.503 184.73 L 340.753 172.73 C 342.753 173.063 344.753 173.337 346.753 173.55 C 348.753 173.757 350.836 173.86 353.003 173.86 L 363.503 171.23 C 363.589 171.897 363.673 172.647 363.753 173.48 C 363.839 174.313 363.883 175.19 363.883 176.11 C 363.883 179.443 362.756 182.047 360.503 183.92 C 358.256 185.793 355.133 186.73 351.133 186.73 Z M 362.633 153.36 C 360.133 153.36 357.403 153.15 354.443 152.73 C 351.483 152.317 348.586 151.757 345.753 151.05 C 342.919 150.337 340.379 149.523 338.133 148.61 L 340.253 135.36 C 345.753 135.36 350.733 135.09 355.193 134.55 C 359.653 134.003 364.049 133.273 368.383 132.36 C 372.716 131.44 377.383 130.397 382.383 129.23 C 382.716 130.563 382.943 131.813 383.063 132.98 C 383.189 134.147 383.253 135.23 383.253 136.23 C 383.253 139.983 382.379 143.13 380.633 145.67 C 378.879 148.21 376.463 150.127 373.383 151.42 C 370.296 152.713 366.713 153.36 362.633 153.36 Z" transform="matrix(0.8078360557556152, 0, 0, 0.8078360557556152, 18.582515716552734, 189.37344360351562)" style="fill: rgb(255, 255, 255); text-transform: uppercase; white-space: pre;"/>
</svg>